<?xml version="1.0" encoding="iso-8859-1"?>
<!-- Generator: Adobe Illustrator 14.0.0, SVG Export Plug-In . SVG Version: 6.00 Build 43363)  -->
<!DOCTYPE svg PUBLIC "-//W3C//DTD SVG 1.1//EN" "http://www.w3.org/Graphics/SVG/1.1/DTD/svg11.dtd">
<svg version="1.1" id="Calque_1" xmlns="http://www.w3.org/2000/svg" xmlns:xlink="http://www.w3.org/1999/xlink" x="0px" y="0px"
	 width="120px" height="77px" viewBox="0 0 120 77" style="enable-background:new 0 0 120 77;" xml:space="preserve">
<g>
	<rect style="fill-rule:evenodd;clip-rule:evenodd;fill:#D2D200;" width="120" height="77"/>
	<g>
		<path d="M34.529,69.817c-6.941,0-12.275-1.524-16.846-4.317l4.825-9.313c3.302,2.286,6.688,3.81,11.344,3.81
			c4.656,0,10.497-2.794,10.497-9.82c0-4.317-2.878-10.243-13.884-10.412c-3.386,0-7.365-0.085-9.312-0.085l2.371-31.069h31.407
			v9.99H33.429l-0.847,11.344c0.338,0,1.101,0.085,1.693,0.085c16.339,0.762,22.942,9.989,22.942,18.963
			C57.217,60.42,48.159,69.817,34.529,69.817z"/>
		<path d="M76.579,69.817c-8.55,0-13.291-2.117-17.27-4.487l4.655-9.228c2.541,1.778,6.688,3.895,11.768,3.895
			c6.941,0,11.26-4.063,11.26-9.143c0-6.857-5.249-9.228-11.344-9.228h-6.18v-9.905h6.264c5.842,0,9.481-3.047,9.481-7.619
			c0-3.81-2.878-7.28-9.143-7.28c-5.503,0-9.143,2.624-11.09,4.317l-4.317-8.804C65.743,8.95,71.246,7.002,78.78,7.002
			c12.19,0,19.132,7.28,19.132,15.238c0,6.18-3.301,11.089-9.65,13.46v0.169c6.604,1.27,11.598,6.35,11.598,14.73
			C99.859,61.098,90.463,69.817,76.579,69.817z"/>
	</g>
</g>
</svg>
