<?xml version="1.0" encoding="iso-8859-1"?>
<!-- Generator: Adobe Illustrator 14.0.0, SVG Export Plug-In . SVG Version: 6.00 Build 43363)  -->
<!DOCTYPE svg PUBLIC "-//W3C//DTD SVG 1.1//EN" "http://www.w3.org/Graphics/SVG/1.1/DTD/svg11.dtd">
<svg version="1.1" id="Calque_1" xmlns="http://www.w3.org/2000/svg" xmlns:xlink="http://www.w3.org/1999/xlink" x="0px" y="0px"
	 width="120px" height="77px" viewBox="0 0 120 77" style="enable-background:new 0 0 120 77;" xml:space="preserve">
<g>
	<rect style="fill-rule:evenodd;clip-rule:evenodd;fill:#00643C;" width="120" height="77"/>
	<g>
		<path style="fill:#FFFFFF;" d="M40.557,69.817c-16.338,0-22.18-11.344-22.18-27.175c0-20.741,9.735-35.64,28.868-35.64
			c3.386,0,6.434,0.423,8.974,1.016l-1.863,10.159c-1.608-0.677-4.741-1.439-8.211-1.439c-8.381,0-14.476,6.688-15.323,18.709
			c2.032-1.778,5.926-4.063,12.36-4.063c9.905,0,17.862,6.518,17.862,17.692C61.043,61.013,53.086,69.817,40.557,69.817z
			 M39.372,40.78c-3.81,0-6.857,1.439-8.042,3.302c-0.677,1.016-0.677,3.386-0.677,5.164c0,5.672,3.302,11.174,9.397,11.174
			c5.926,0,8.974-4.825,8.974-9.989C49.022,44.844,45.297,40.78,39.372,40.78z"/>
		<path style="fill:#FFFFFF;" d="M78.934,69.817c-6.941,0-12.275-1.524-16.847-4.317l4.825-9.313
			c3.302,2.286,6.688,3.81,11.344,3.81s10.498-2.794,10.498-9.82c0-4.317-2.879-10.243-13.884-10.412
			c-3.387,0-7.365-0.085-9.313-0.085l2.37-31.069h31.408v9.99H77.833l-0.847,11.344c0.338,0,1.101,0.085,1.693,0.085
			c16.338,0.762,22.941,9.989,22.941,18.963C101.621,60.42,92.563,69.817,78.934,69.817z"/>
	</g>
</g>
</svg>
