<?xml version="1.0" encoding="iso-8859-1"?>
<!-- Generator: Adobe Illustrator 14.0.0, SVG Export Plug-In . SVG Version: 6.00 Build 43363)  -->
<!DOCTYPE svg PUBLIC "-//W3C//DTD SVG 1.1//EN" "http://www.w3.org/Graphics/SVG/1.1/DTD/svg11.dtd">
<svg version="1.1" id="Calque_1" xmlns="http://www.w3.org/2000/svg" xmlns:xlink="http://www.w3.org/1999/xlink" x="0px" y="0px"
	 width="120px" height="77px" viewBox="0 0 120 77" style="enable-background:new 0 0 120 77;" xml:space="preserve">
<g>
	<rect style="fill-rule:evenodd;clip-rule:evenodd;fill:#640082;" width="120" height="77"/>
	<g>
		<path style="fill:#FFFFFF;" d="M28.894,44.652h-4.219v14.531h-9.141V17.816H28.25c9.551,0,17.754,2.578,17.754,12.832
			C46.003,42.66,35.984,44.652,28.894,44.652z M28.777,24.906h-4.102v12.715h4.219c3.398,0,7.852-1.055,7.852-6.387
			C36.746,25.609,31.824,24.906,28.777,24.906z"/>
		<path style="fill:#FFFFFF;" d="M69.831,60.18c-10.488,0-20.508-6.914-20.508-21.211c0-12.363,7.207-22.266,20.508-22.266
			c5.098,0,8.848,1.055,11.836,2.402l-2.988,7.559c-2.695-1.523-5.742-2.227-8.379-2.227c-6.328,0-11.484,4.16-11.484,14.121
			c0,9.492,6.211,13.887,12.188,13.887c3.281,0,6.211-0.996,8.262-2.227l2.461,7.09C78.562,59.008,74.05,60.18,69.831,60.18z"/>
		<path style="fill:#FFFFFF;" d="M95.439,59.184v-32.52c-2.52,1.992-6.504,3.926-9.258,5.156l-2.813-6.328
			c4.336-1.816,9.551-4.57,13.652-7.676h7.207v41.367H95.439z"/>
	</g>
</g>
</svg>
