<?xml version="1.0" encoding="iso-8859-1"?>
<!-- Generator: Adobe Illustrator 14.0.0, SVG Export Plug-In . SVG Version: 6.00 Build 43363)  -->
<!DOCTYPE svg PUBLIC "-//W3C//DTD SVG 1.1//EN" "http://www.w3.org/Graphics/SVG/1.1/DTD/svg11.dtd">
<svg version="1.1" id="Calque_1" xmlns="http://www.w3.org/2000/svg" xmlns:xlink="http://www.w3.org/1999/xlink" x="0px" y="0px"
	 width="120px" height="77px" viewBox="0 0 120 77" style="enable-background:new 0 0 120 77;" xml:space="preserve">
<g>
	<rect style="fill-rule:evenodd;clip-rule:evenodd;fill:#00643C;" width="120" height="77"/>
	<g>
		<path style="fill:#FFFFFF;" d="M26.488,44.652H22.27v14.531h-9.141V17.816h12.715c9.551,0,17.754,2.578,17.754,12.832
			C43.598,42.66,33.578,44.652,26.488,44.652z M26.371,24.906H22.27v12.715h4.219c3.398,0,7.852-1.055,7.852-6.387
			C34.34,25.609,29.418,24.906,26.371,24.906z"/>
		<path style="fill:#FFFFFF;" d="M67.426,60.18c-10.489,0-20.508-6.914-20.508-21.211c0-12.363,7.207-22.266,20.508-22.266
			c5.098,0,8.848,1.055,11.836,2.402l-2.988,7.559c-2.695-1.523-5.742-2.227-8.379-2.227c-6.328,0-11.485,4.16-11.485,14.121
			c0,9.492,6.211,13.887,12.188,13.887c3.281,0,6.211-0.996,8.262-2.227l2.461,7.09C76.156,59.008,71.645,60.18,67.426,60.18z"/>
		<path style="fill:#FFFFFF;" d="M83.313,59.184v-5.449c1.055-4.805,5.801-9.199,11.309-14.004c2.754-2.402,5.742-5.391,5.742-9.375
			c0-3.574-2.344-6.563-6.855-6.563c-3.633,0-6.152,2.637-7.148,3.75l-4.336-5.742c3.984-3.457,7.676-5.098,13.242-5.098
			c7.266,0,14.121,4.219,14.121,12.656c0,7.09-4.512,10.43-9.492,14.941c-2.109,1.934-6.27,5.566-6.797,7.969h17.051v6.914H83.313z"
			/>
	</g>
</g>
</svg>
