<?xml version="1.0" encoding="iso-8859-1"?>
<!-- Generator: Adobe Illustrator 14.0.0, SVG Export Plug-In . SVG Version: 6.00 Build 43363)  -->
<!DOCTYPE svg PUBLIC "-//W3C//DTD SVG 1.1//EN" "http://www.w3.org/Graphics/SVG/1.1/DTD/svg11.dtd">
<svg version="1.1" id="Calque_1" xmlns="http://www.w3.org/2000/svg" xmlns:xlink="http://www.w3.org/1999/xlink" x="0px" y="0px"
	 width="120px" height="77px" viewBox="0 0 120 77" style="enable-background:new 0 0 120 77;" xml:space="preserve">
<g>
	<rect style="fill-rule:evenodd;clip-rule:evenodd;fill:#FF1400;" width="120" height="77"/>
	<g>
		<path style="fill:#FFFFFF;" d="M26.146,44.652h-4.219v14.531h-9.141V17.816h12.715c9.551,0,17.754,2.578,17.754,12.832
			C43.255,42.66,33.235,44.652,26.146,44.652z M26.028,24.906h-4.102v12.715h4.219c3.398,0,7.852-1.055,7.852-6.387
			C33.997,25.609,29.075,24.906,26.028,24.906z"/>
		<path style="fill:#FFFFFF;" d="M67.082,60.18c-10.488,0-20.507-6.914-20.507-21.211c0-12.363,7.207-22.266,20.507-22.266
			c5.098,0,8.848,1.055,11.836,2.402l-2.988,7.559c-2.695-1.523-5.742-2.227-8.379-2.227c-6.328,0-11.484,4.16-11.484,14.121
			c0,9.492,6.21,13.887,12.187,13.887c3.281,0,6.211-0.996,8.262-2.227l2.461,7.09C75.813,59.008,71.301,60.18,67.082,60.18z"/>
		<path style="fill:#FFFFFF;" d="M93.91,60.18c-5.918,0-9.199-1.465-11.953-3.105l3.223-6.387c1.758,1.23,4.629,2.695,8.145,2.695
			c4.805,0,7.793-2.813,7.793-6.328c0-4.746-3.633-6.387-7.852-6.387h-4.277v-6.855h4.336c4.043,0,6.563-2.109,6.563-5.273
			c0-2.637-1.992-5.039-6.328-5.039c-3.809,0-6.328,1.816-7.676,2.988l-2.988-6.094c3.516-2.344,7.324-3.691,12.539-3.691
			c8.438,0,13.242,5.039,13.242,10.547c0,4.277-2.285,7.676-6.68,9.316v0.117c4.57,0.879,8.027,4.395,8.027,10.195
			C110.023,54.145,103.52,60.18,93.91,60.18z"/>
	</g>
</g>
</svg>
