<svg xmlns="http://www.w3.org/2000/svg" width="100" height="100" viewBox="0 0 105 105"><path fill="#003E95" d="M100 49.607c0 27.396-22.209 49.605-49.605 49.605S0 77.004 0 49.607 22.209 0 49.605 0 100 22.211 100 49.607zM49.605 7.088c-23.482 0-42.52 19.035-42.52 42.52 0 23.482 19.037 42.52 42.52 42.52s42.52-19.037 42.52-42.52c0-23.485-19.037-42.52-42.52-42.52z"/><path fill="#003E95" d="M55.232 76.254h3.596v-4.602h-.004v-44.85h-.002a3.596 3.596 0 0 0-3.594-3.588v.01h-3.586v28.968a3.598 3.598 0 1 1-6.561 2.047L25.68 24.68l-.021.016a3.597 3.597 0 0 0-2.92-1.498v.01h-3.584v49.39c-.002.018-.004.033-.004.049 0 1.99 1.611 3.6 3.598 3.6v-.01h3.592v-4.602h-.004V47.223h.008a3.603 3.603 0 1 1 6.586-2.012l19.123 29.133a3.587 3.587 0 0 0 3.176 1.911"/><path fill="#003E95" stroke="#003D95" stroke-width="2.129" stroke-linecap="round" stroke-linejoin="round" d="M72.621 19.77l2.252 6.334 6.072-2.883-2.884 6.072 6.334 2.25-6.334 2.254 2.884 6.07-6.072-2.887-2.252 6.336-2.254-6.336-6.07 2.887 2.885-6.07-6.332-2.254 6.332-2.25-2.885-6.072 6.07 2.883z"/></svg>